<?xml version="1.0" standalone="no"?>
<!DOCTYPE svg PUBLIC "-//W3C//DTD SVG 20010904//EN"
 "http://www.w3.org/TR/2001/REC-SVG-20010904/DTD/svg10.dtd">
<svg version="1.0" xmlns="http://www.w3.org/2000/svg"
 width="1527.000000pt" height="1527.000000pt" viewBox="0 0 1527.000000 1527.000000"
 preserveAspectRatio="xMidYMid meet">
<metadata>
Created by potrace 1.11, written by Peter Selinger 2001-2013
</metadata>
<g transform="translate(0.000000,1527.000000) scale(0.100000,-0.100000)"
fill="#000000" stroke="none">
<path d="M7420 13860 c-172 -16 -274 -46 -447 -133 -154 -77 -397 -267 -518
-405 -147 -167 -164 -189 -215 -270 -96 -156 -210 -453 -210 -549 0 -39 2 -44
15 -33 8 7 18 28 21 48 4 20 15 50 26 67 10 16 18 37 18 45 0 8 7 29 16 45 9
17 26 57 39 91 55 146 178 351 233 390 15 10 33 12 61 8 43 -7 52 -23 25 -44
-19 -17 -46 -79 -38 -91 3 -5 -6 -20 -20 -34 -15 -14 -26 -34 -26 -45 0 -10
-8 -23 -17 -29 -14 -8 -18 -24 -19 -81 0 -39 -6 -76 -12 -82 -7 -7 -12 -27
-12 -45 0 -48 -35 -113 -61 -113 -18 0 -19 -3 -9 -15 10 -12 8 -16 -13 -24
-19 -7 -28 -20 -32 -45 -4 -19 -4 -40 0 -45 10 -17 -4 -51 -21 -51 -19 0 -18
-26 2 -34 13 -5 15 -15 11 -49 -6 -43 16 -151 35 -175 8 -9 5 -21 -12 -44 -18
-25 -22 -39 -18 -85 4 -40 1 -56 -10 -62 -26 -14 -42 -81 -36 -143 6 -49 9
-57 31 -63 39 -9 130 14 140 37 5 11 31 32 58 47 37 21 50 34 49 49 0 19 5 22
36 22 20 0 41 -5 47 -11 14 -14 187 -13 191 1 5 13 39 13 48 -1 4 -8 9 -7 15
2 6 11 9 10 15 -4 3 -9 14 -17 25 -17 17 0 17 -1 1 -31 -16 -29 -12 -41 12
-40 9 0 65 -53 61 -58 -3 -2 -15 0 -28 6 -39 18 -106 36 -137 36 -33 0 -58
-17 -71 -50 -7 -20 -15 -23 -62 -23 -30 0 -75 3 -101 6 -39 6 -46 10 -46 30 0
28 -25 34 -62 17 -31 -16 -40 -36 -32 -68 6 -25 -31 -85 -71 -115 -41 -30 -85
-83 -91 -108 -4 -15 -11 -32 -15 -38 -5 -6 -10 -25 -11 -44 -3 -27 2 -35 27
-50 30 -16 37 -28 69 -103 9 -21 26 -42 38 -47 13 -5 19 -9 13 -9 -5 -1 0 -8
12 -16 16 -11 28 -13 48 -5 14 5 49 10 76 10 28 0 60 7 73 15 13 9 28 14 32
13 5 -2 10 1 11 6 1 5 7 13 15 17 10 7 10 9 -2 9 -8 1 -49 2 -90 4 -134 5
-201 71 -175 174 7 28 45 31 45 3 0 -10 7 -25 17 -32 21 -18 118 -19 207 -1
39 7 92 13 117 13 54 -1 119 -25 119 -45 0 -9 7 -12 19 -9 10 3 22 0 25 -6 8
-12 -22 -61 -37 -61 -5 0 -25 -11 -43 -25 -18 -14 -39 -25 -47 -25 -8 0 -22
-9 -32 -20 -10 -11 -24 -20 -32 -20 -7 0 -16 -7 -19 -15 -4 -8 -14 -15 -24
-15 -11 0 -21 -4 -25 -10 -3 -5 -12 -7 -19 -4 -8 3 -17 1 -21 -5 -3 -6 -1 -11
4 -11 22 0 10 -18 -16 -25 -19 -5 -23 -9 -13 -13 22 -8 37 -26 32 -40 -2 -6 4
-12 13 -12 9 0 13 5 9 11 -4 7 -1 10 7 7 8 -3 25 -1 39 4 50 19 66 22 140 22
74 1 75 1 72 -24 -1 -13 -9 -28 -17 -33 -21 -12 -18 -27 5 -27 11 0 20 -4 20
-9 0 -23 54 -21 101 4 59 30 78 31 112 5 27 -21 47 -26 47 -11 0 6 8 10 18 10
96 2 146 -1 160 -8 15 -8 66 -13 252 -25 56 -3 126 -30 134 -51 14 -37 -31
-47 -104 -22 -38 12 -53 12 -96 1 -29 -7 -63 -14 -76 -16 -14 -2 -32 -11 -41
-20 -9 -9 -30 -22 -47 -30 -16 -7 -30 -17 -30 -21 0 -25 -90 -53 -150 -47 -8
1 -37 1 -63 1 -47 -1 -107 21 -107 38 0 23 29 31 86 22 32 -4 68 -12 79 -16
17 -6 17 -4 -3 12 -31 26 -155 67 -178 59 -23 -8 -85 -63 -83 -73 1 -5 1 -13
0 -18 -2 -15 -54 -71 -80 -84 -12 -7 -44 -47 -72 -89 -27 -42 -53 -82 -58 -88
-5 -6 -12 -36 -16 -65 -8 -63 -18 -79 -45 -72 -15 4 -20 0 -19 -13 1 -25 17
-64 18 -44 1 10 4 11 12 3 14 -14 2 -36 -14 -26 -7 4 -6 -1 2 -10 8 -10 11
-20 7 -24 -3 -3 1 -14 10 -24 18 -20 38 -16 71 14 13 11 26 17 30 14 3 -4 1
-7 -5 -7 -6 0 -9 -7 -6 -15 4 -8 1 -22 -6 -30 -10 -12 -10 -21 -1 -43 7 -16
11 -33 10 -38 -7 -24 15 -51 58 -70 41 -19 50 -20 64 -8 18 16 39 18 39 4 0
-5 7 -10 15 -10 8 0 24 -5 34 -12 24 -15 58 -3 42 16 -6 7 -8 16 -4 19 11 12
23 8 23 -7 0 -19 50 -28 57 -10 4 11 9 12 19 3 11 -9 14 -9 14 0 0 15 49 35
79 32 29 -3 91 -42 91 -57 0 -15 56 -38 70 -29 7 4 9 16 7 27 -4 13 1 22 17
28 22 8 66 13 96 11 20 -1 93 -108 80 -116 -6 -3 -14 -4 -19 -1 -5 3 -14 -1
-21 -9 -16 -19 -47 -24 -228 -34 -156 -9 -182 -17 -182 -52 0 -21 37 -34 68
-25 48 16 95 16 106 1 13 -17 93 -22 198 -12 37 3 67 3 67 -1 -3 -19 2 -23 16
-12 8 7 15 8 15 4 0 -5 -9 -15 -20 -22 -12 -7 -18 -17 -15 -22 3 -4 -8 -11
-25 -15 -26 -6 -29 -10 -24 -31 5 -18 2 -24 -10 -24 -8 0 -20 -9 -26 -19 -13
-24 -13 -34 0 -26 5 3 8 -7 5 -24 -2 -18 2 -35 11 -42 11 -9 14 -7 14 10 0 11
5 21 10 21 6 0 10 -4 10 -10 0 -5 6 -10 14 -10 8 0 16 -7 20 -15 3 -8 11 -15
18 -15 15 0 43 -40 40 -56 -1 -6 7 -19 18 -29 11 -10 20 -13 20 -7 0 7 5 12
10 12 6 0 10 -6 10 -14 0 -18 -49 -31 -63 -17 -19 19 -25 12 -38 -43 l-12 -54
-50 -5 c-27 -4 -70 -14 -94 -23 -35 -14 -51 -15 -73 -7 -22 8 -33 8 -49 -4
-21 -14 -45 -8 -81 22 -8 7 -29 15 -47 17 -24 3 -33 0 -36 -13 -6 -21 -45 -15
-54 7 -7 18 -27 18 -43 -1 -15 -18 -42 -20 -39 -2 3 28 -2 38 -28 48 -42 16
-80 2 -94 -34 -6 -18 -10 -36 -8 -42 2 -5 4 -28 5 -50 1 -22 2 -50 3 -63 1
-17 9 -24 31 -28 25 -5 30 -12 35 -43 4 -20 8 -45 10 -57 3 -11 -3 -29 -13
-40 -10 -10 -16 -27 -14 -37 3 -15 0 -16 -23 -7 -15 6 -30 8 -35 5 -4 -3 -13
2 -20 10 -17 20 -48 19 -54 -2 -24 -85 -28 -133 -16 -164 46 -110 296 -368
422 -436 77 -42 145 -63 200 -63 18 0 54 -8 81 -17 47 -17 47 -17 105 11 197
97 623 364 752 472 211 177 489 514 590 714 41 82 96 224 105 273 8 43 25 50
25 9 0 -58 -23 -150 -62 -252 -62 -157 -464 -947 -557 -1093 -45 -69 -124
-213 -177 -319 -52 -106 -104 -209 -114 -228 -26 -48 -148 -330 -206 -476 -52
-133 -257 -715 -327 -929 -74 -227 -260 -864 -331 -1130 -44 -168 -63 -248
-152 -640 -25 -110 -57 -238 -70 -285 -14 -47 -29 -105 -34 -130 -6 -25 -18
-52 -28 -60 -13 -11 -17 -26 -14 -61 3 -33 -8 -92 -36 -195 -23 -82 -55 -228
-73 -324 -32 -175 -71 -326 -89 -344 -24 -24 -26 -5 -50 339 -6 94 -18 215
-27 270 -8 55 -18 168 -22 250 -6 129 -11 155 -29 186 -25 41 -30 96 -13 157
7 23 9 47 6 52 -3 6 -24 10 -46 10 -37 0 -41 3 -56 38 -24 58 -31 315 -9 377
21 62 20 122 -1 182 -9 26 -17 84 -19 128 -1 44 -8 163 -15 265 -7 102 -14
410 -15 685 -1 275 -2 506 -3 513 -1 8 -18 12 -48 12 l-48 0 -3 103 c-2 104
20 355 40 437 20 85 149 483 184 567 19 47 39 108 45 136 12 54 33 87 55 87
18 0 68 -75 84 -125 7 -22 16 -44 20 -50 5 -5 16 -41 25 -80 21 -83 34 -112
69 -144 39 -36 41 -20 7 48 -54 106 -73 164 -77 236 -3 39 -9 97 -14 130 -6
34 -14 116 -20 184 -10 118 -35 246 -65 323 -41 107 -55 258 -30 321 10 24 -3
22 -87 -17 -40 -19 -127 -59 -193 -89 -164 -75 -371 -175 -425 -207 -25 -15
-151 -84 -280 -155 -290 -158 -383 -219 -550 -364 -36 -31 -87 -74 -114 -96
-72 -59 -152 -167 -207 -282 -99 -206 -128 -311 -154 -548 -16 -154 -37 -235
-135 -530 -48 -144 -75 -277 -84 -405 -4 -52 -24 -187 -46 -300 -21 -113 -50
-272 -65 -355 -15 -82 -33 -184 -40 -225 -9 -44 -14 -144 -15 -241 0 -130 -5
-194 -25 -303 -13 -76 -34 -230 -45 -343 -22 -211 -31 -253 -95 -405 -47 -115
-65 -200 -65 -323 0 -55 -8 -136 -16 -180 -8 -44 -19 -141 -23 -215 l-7 -136
-51 -94 c-69 -126 -93 -216 -100 -365 -4 -97 -1 -140 15 -225 12 -58 24 -170
27 -250 3 -80 15 -228 26 -330 11 -102 24 -239 29 -305 11 -146 34 -301 61
-415 11 -47 33 -150 50 -229 16 -79 40 -178 53 -220 14 -43 37 -146 51 -230
15 -83 42 -198 61 -254 45 -132 104 -332 104 -352 0 -13 119 -15 1113 -15
l1113 0 35 148 c32 132 109 333 141 367 18 20 34 -24 93 -268 l60 -247 2133 0
2134 0 -6 27 c-5 23 4 42 55 108 33 44 159 211 280 370 120 160 248 328 284
375 104 136 232 331 254 388 12 29 30 104 42 167 13 74 40 168 75 262 59 161
120 403 153 609 12 73 30 165 40 205 10 41 24 117 30 169 7 52 16 120 21 150
5 30 14 109 21 175 6 66 22 161 35 210 12 50 28 143 34 207 5 65 17 147 25
183 9 36 18 134 20 218 3 83 9 199 14 257 13 136 14 305 1 400 -11 91 -36 363
-50 560 -6 80 -19 226 -30 325 -10 99 -26 254 -35 345 -34 347 -71 607 -110
755 -16 62 -31 164 -41 269 -16 181 -35 307 -64 426 -24 98 -40 206 -40 271 0
47 -15 156 -40 299 -6 30 -30 97 -54 150 -25 52 -50 122 -56 155 -12 57 -59
158 -118 255 -35 55 -84 90 -128 90 -19 0 -75 16 -126 36 -51 19 -167 64 -258
98 -91 35 -214 86 -275 113 -60 27 -126 56 -145 63 -19 8 -118 59 -219 113
-225 123 -639 317 -1031 483 -31 13 -76 24 -102 24 -52 0 -55 3 -131 118 -23
34 -67 99 -99 145 -31 45 -96 153 -144 241 -56 101 -100 167 -120 182 -29 23
-139 53 -190 54 -27 0 -33 42 -34 240 -1 80 -8 192 -16 249 -8 58 -14 118 -14
134 0 28 1 29 40 22 49 -8 105 21 162 84 20 23 46 41 57 41 31 0 99 74 132
143 15 34 47 125 69 202 39 132 41 146 37 242 -3 94 -6 105 -38 160 -23 39
-46 64 -70 75 -32 16 -40 17 -93 3 -31 -8 -62 -15 -68 -15 -13 0 -7 41 27 165
24 90 27 123 32 315 3 118 0 294 -5 390 -9 156 -14 186 -45 280 -43 132 -101
247 -164 325 -72 89 -199 210 -283 271 -96 69 -182 131 -236 171 -23 17 -57
39 -76 49 -18 9 -46 27 -63 40 -91 69 -372 187 -507 213 -78 14 -231 20 -328
11z m-123 -1145 c11 -4 13 -9 6 -16 -7 -7 -17 -7 -32 3 -24 15 -28 30 -6 23 8
-3 23 -7 32 -10z m-534 -81 c9 -10 -4 -34 -19 -34 -9 0 -14 -11 -14 -29 0 -16
-5 -31 -11 -33 -21 -7 -109 16 -106 27 4 11 33 12 60 0 10 -4 17 -4 16 1 -4
16 13 44 26 44 7 0 15 7 19 15 6 16 18 19 29 9z m87 2 c0 -2 -7 -7 -16 -10 -8
-3 -12 -2 -9 4 6 10 25 14 25 6z m117 -41 c8 -8 20 -15 26 -15 7 0 21 -7 31
-15 19 -14 19 -15 -5 -36 l-24 -22 37 6 c38 6 81 -1 74 -12 -2 -3 7 -7 20 -7
15 -1 24 4 24 12 0 10 7 13 26 8 17 -4 29 -2 34 6 12 19 97 -6 105 -31 4 -11
11 -19 16 -19 5 0 9 -7 9 -15 0 -8 3 -15 8 -16 17 -2 45 -8 59 -14 13 -4 14
-8 5 -17 -7 -7 -12 -17 -12 -22 0 -6 5 -3 11 7 5 9 14 17 20 17 11 0 58 -50
59 -62 0 -13 -28 -9 -33 5 -4 9 -8 8 -16 -3 -16 -23 -9 -43 18 -50 34 -8 69
-56 53 -72 -16 -16 -34 8 -26 35 3 9 1 17 -5 17 -6 0 -11 -4 -11 -10 0 -5 -11
-10 -25 -10 -34 0 -32 -17 5 -38 16 -9 30 -20 30 -24 0 -3 9 -4 19 -1 23 6
120 -80 103 -91 -6 -3 -13 -2 -17 4 -4 7 -13 6 -27 -1 -14 -8 -23 -8 -31 0
-18 18 -29 13 -17 -9 7 -12 16 -17 27 -13 15 6 15 5 0 -17 -21 -30 -22 -60 -2
-60 21 0 37 -37 30 -69 -3 -16 -20 -43 -37 -60 -25 -25 -29 -34 -18 -41 34
-21 -35 -72 -99 -72 -25 0 -44 -7 -64 -26 -23 -22 -29 -24 -37 -12 -8 12 -10
11 -10 -7 0 -12 -4 -24 -9 -27 -4 -3 -11 -18 -14 -33 -4 -16 -11 -34 -16 -42
-16 -25 -58 15 -90 87 -6 12 -17 22 -26 22 -8 0 -15 4 -15 10 0 20 -92 52
-148 51 -12 -1 -25 5 -28 13 -3 8 -13 12 -24 9 -24 -7 -52 20 -44 42 5 13 9
14 15 4 10 -17 21 -6 23 23 1 13 7 22 15 20 18 -4 13 4 -80 111 l-26 30 -22
-37 c-27 -43 -43 -42 -52 3 -9 43 -10 44 -74 49 -30 2 -55 9 -55 15 0 5 -14 7
-34 4 -26 -4 -36 -2 -41 11 -5 13 -8 13 -14 4 -6 -10 -10 -10 -19 0 -15 18 29
68 61 68 29 0 92 40 129 83 22 26 28 28 33 15 4 -9 15 -16 26 -15 17 1 17 3 3
25 -14 22 -14 25 3 38 16 12 16 15 3 24 -15 10 -12 11 23 14 6 1 18 6 25 11
44 35 54 55 27 55 -8 0 -25 6 -38 13 -12 6 -23 12 -25 13 -1 1 0 9 4 18 7 18
30 22 36 5 2 -5 11 -7 21 -3 26 9 15 29 -16 29 -42 1 -43 13 -1 32 l39 18 -32
3 c-21 2 -33 9 -33 18 0 8 -9 14 -20 14 -11 0 -20 5 -20 11 0 7 18 8 55 4 42
-6 56 -4 60 6 7 19 64 22 82 4z m237 -39 c9 3 16 1 16 -6 0 -7 -11 -10 -27 -9
-34 4 -55 18 -47 31 3 5 14 2 24 -7 9 -8 24 -13 34 -9z m-414 -27 c0 -5 -9 -9
-20 -9 -13 0 -18 5 -14 14 6 15 34 11 34 -5z m590 1 c0 -5 -9 -10 -20 -10 -11
0 -20 5 -20 10 0 6 9 10 20 10 11 0 20 -4 20 -10z m-760 -10 c0 -5 -4 -10 -10
-10 -5 0 -10 5 -10 10 0 6 5 10 10 10 6 0 10 -4 10 -10z m825 -1 c4 -6 5 -12
2 -15 -7 -7 -37 7 -37 17 0 13 27 11 35 -2z m59 -56 c6 -17 3 -23 -8 -23 -11
0 -13 -6 -9 -17 6 -17 5 -17 -16 -3 -28 19 -27 36 2 32 14 -1 17 1 10 6 -7 4
-10 17 -6 31 6 25 14 17 27 -26z m-1257 -5 c-3 -8 -6 -5 -6 6 -1 11 2 17 5 13
3 -3 4 -12 1 -19z m1143 12 c0 -5 -5 -10 -11 -10 -5 0 -7 5 -4 10 3 6 8 10 11
10 2 0 4 -4 4 -10z m45 0 c3 -5 -1 -10 -10 -10 -9 0 -13 5 -10 10 3 6 8 10 10
10 2 0 7 -4 10 -10z m533 -558 c2 -7 -6 -12 -17 -12 -21 0 -27 11 -14 24 9 9
26 2 31 -12z m-60 -44 c6 -7 13 -30 17 -50 l7 -38 -40 0 c-23 0 -43 -4 -46 -8
-3 -5 -38 -14 -78 -22 -40 -7 -81 -17 -91 -22 -47 -24 -28 39 21 72 43 29 60
38 122 61 57 21 75 22 88 7z m912 -32 c0 -7 6 -19 14 -25 13 -11 13 -51 0 -73
-3 -4 2 -15 10 -24 9 -8 16 -30 16 -47 -1 -27 -2 -29 -11 -14 -5 9 -15 17 -21
17 -7 0 -6 -5 2 -15 8 -10 9 -15 1 -15 -12 0 -18 21 -26 100 -4 30 -7 64 -9
75 -1 11 -1 23 1 28 7 12 23 8 23 -7z m-1020 -130 c0 -8 -14 -17 -32 -21 -18
-4 -58 -27 -90 -51 -60 -47 -74 -53 -65 -29 4 8 2 17 -4 20 -5 4 -6 11 -3 17
4 7 9 6 14 -1 5 -9 25 0 66 27 82 54 114 65 114 38z m73 -174 c28 -30 -2 -35
-76 -12 -34 11 -69 20 -78 20 -9 0 -24 11 -33 25 -21 31 -20 35 3 35 11 0 23
5 26 10 10 16 78 57 101 62 16 3 20 -5 29 -59 6 -34 19 -70 28 -81z m268 102
c17 -8 29 -21 26 -27 -4 -14 -84 -60 -95 -55 -11 4 17 98 29 98 6 0 24 -7 40
-16z m-213 -20 c2 -12 -4 -24 -12 -27 -19 -7 -40 18 -32 39 8 22 40 13 44 -12z
m-1358 -24 c4 -19 15 -48 25 -64 l20 -29 -34 6 c-45 9 -119 47 -125 63 -6 15
71 66 94 61 8 -1 17 -17 20 -37z m298 28 c7 -7 12 -21 12 -32 0 -19 1 -19 13
-1 17 23 32 4 18 -23 -8 -14 -100 -48 -107 -39 -1 1 3 26 9 55 11 53 29 66 55
40z m-185 -11 c8 -20 -9 -41 -27 -34 -23 9 -21 47 3 47 10 0 21 -6 24 -13z
m1357 -2 c0 -16 -27 -32 -37 -22 -3 4 -3 13 0 22 8 20 37 20 37 0z m-195 -135
c6 -5 19 -10 30 -13 11 -2 1 -2 -23 0 -23 2 -54 11 -70 19 -27 15 -27 15 13 8
22 -4 45 -10 50 -14z m35 -51 c25 -7 51 -13 58 -12 6 0 12 -3 12 -8 0 -5 -14
-9 -30 -9 -28 0 -30 -2 -19 -21 8 -15 8 -19 0 -15 -14 9 -14 -7 -1 -20 8 -8
-2 -11 -33 -10 -50 1 -122 47 -113 72 3 8 0 14 -7 14 -7 0 -4 7 7 15 10 7 15
19 11 25 -4 6 8 5 32 -4 21 -7 58 -20 83 -27z m-130 27 c0 -11 -19 -15 -25 -6
-3 5 1 10 9 10 9 0 16 -2 16 -4z m-1140 -16 c0 -5 -4 -10 -10 -10 -5 0 -10 5
-10 10 0 6 5 10 10 10 6 0 10 -4 10 -10z m2235 -37 c-8 -19 -15 -79 -15 -127
1 -33 -20 -97 -35 -109 -6 -6 -6 -10 3 -14 24 -10 13 -52 -18 -68 -16 -9 -30
-12 -30 -8 0 5 -5 1 -10 -7 -16 -23 -32 8 -24 45 3 17 8 41 10 55 7 56 21 86
47 98 27 13 28 32 2 32 -23 0 -11 51 17 74 14 12 29 32 33 45 5 16 10 20 17
13 6 -6 7 -19 3 -29z m-765 -188 c9 -11 10 -19 3 -26 -14 -14 -43 0 -43 22 0
23 23 25 40 4z m227 -50 c0 -5 -11 -11 -24 -11 -13 -1 -23 4 -23 11 0 7 10 12
23 11 13 0 24 -5 24 -11z m428 -165 c0 -16 -6 -25 -15 -25 -8 0 -15 8 -15 18
0 10 -7 22 -15 28 -11 7 -8 9 15 7 24 -2 30 -8 30 -28z m-799 -118 c11 -25 13
-41 6 -41 -21 3 -31 -3 -26 -15 8 -21 -22 -27 -40 -7 -13 14 -14 23 -5 49 6
18 15 29 20 26 5 -3 9 -1 9 5 0 15 27 2 36 -17z m784 12 c0 -8 -19 -13 -24 -6
-3 5 1 9 9 9 8 0 15 -2 15 -3z m-1120 -33 c0 -16 -30 -33 -46 -27 -13 5 -14 9
-4 21 13 16 50 21 50 6z m640 -2 c0 -7 9 -9 23 -6 34 9 48 -5 41 -40 -4 -21
-11 -30 -20 -26 -16 6 -19 -8 -4 -23 6 -6 8 -18 5 -26 -8 -19 -45 -12 -45 8 0
8 -5 14 -11 14 -5 0 -7 5 -3 12 4 6 3 8 -2 5 -18 -11 -39 12 -39 43 0 23 4 30
20 30 17 0 17 2 5 10 -12 8 -11 10 8 10 12 0 22 -5 22 -11z m-1015 -99 c-3 -5
-13 -10 -21 -10 -8 0 -14 5 -14 10 0 6 9 10 21 10 11 0 17 -4 14 -10z m42 -16
c28 -8 20 -24 -12 -24 -25 0 -39 12 -28 24 8 7 12 7 40 0z m1499 -252 c13 -9
26 -42 16 -42 -13 1 -42 27 -42 39 0 13 10 14 26 3z m-1562 -64 c44 -12 70
-28 61 -36 -12 -13 19 -31 42 -25 40 10 23 -20 -18 -31 -19 -6 -40 -16 -48
-24 -10 -9 -17 -10 -24 -3 -16 16 -27 13 -27 -5 0 -14 -7 -15 -38 -10 -22 3
-42 3 -45 -1 -4 -3 -32 -7 -63 -8 -30 -1 -59 -7 -63 -13 -15 -25 -179 -10
-189 17 -3 9 -10 19 -15 22 -19 13 2 38 40 48 55 15 57 14 65 -18 8 -29 30
-41 76 -41 17 0 24 7 28 28 7 33 40 76 53 68 5 -3 11 1 15 9 3 8 17 15 31 15
14 0 25 5 25 10 0 13 43 13 94 -2z m1596 -67 c0 -10 -7 -21 -15 -25 -15 -5
-22 24 -8 37 12 13 23 7 23 -12z m-1220 -355 c0 -2 -7 -6 -15 -10 -8 -3 -15
-1 -15 4 0 6 7 10 15 10 8 0 15 -2 15 -4z m42 -198 c-6 -6 -15 -8 -19 -4 -4 4
-1 11 7 16 19 12 27 3 12 -12z m-37 2 c-3 -5 -10 -10 -16 -10 -5 0 -9 5 -9 10
0 6 7 10 16 10 8 0 12 -4 9 -10z m5 -230 c0 -5 -4 -10 -9 -10 -6 0 -13 5 -16
10 -3 6 1 10 9 10 9 0 16 -4 16 -10z m-534 -516 c-3 -8 -1 -14 4 -14 6 0 10 5
10 10 0 6 4 10 9 10 13 0 61 -45 61 -57 0 -14 -39 -90 -40 -77 0 23 -48 61
-83 68 -33 6 -53 26 -26 26 6 0 8 7 5 16 -3 8 -3 26 0 39 5 22 7 22 35 8 19
-9 28 -20 25 -29z m372 10 c24 -16 30 -44 8 -44 -7 0 -19 -6 -25 -14 -22 -26
-95 -29 -145 -5 -51 23 -58 42 -23 60 55 30 139 32 185 3z m-453 6 c3 -5 1
-10 -4 -10 -6 0 -11 5 -11 10 0 6 2 10 4 10 3 0 8 -4 11 -10z m540 -280 c9 15
41 12 55 -5 10 -12 9 -16 -6 -21 -11 -3 -27 -10 -36 -15 -10 -5 -28 -9 -40 -8
-35 0 -93 23 -91 34 3 14 63 23 90 13 13 -4 25 -3 28 2z m-817 -6447 c25 -16
58 -40 74 -55 25 -24 29 -34 26 -70 -3 -39 -7 -45 -47 -67 -28 -15 -48 -35
-57 -57 -12 -29 -19 -34 -47 -34 -38 0 -64 17 -69 45 -2 14 -12 20 -37 21 -45
2 -63 24 -69 84 -4 43 -1 55 18 75 33 35 47 31 61 -16 9 -28 21 -44 37 -50 14
-5 26 -8 28 -6 7 7 -19 122 -29 128 -5 4 -6 12 -3 18 13 20 67 12 114 -16z
m275 -160 c-7 -2 -19 -2 -25 0 -7 3 -2 5 12 5 14 0 19 -2 13 -5z"/>
<path d="M6894 12576 c-10 -8 -17 -17 -14 -19 3 -3 14 1 24 9 11 7 17 16 15
19 -3 3 -14 -2 -25 -9z"/>
<path d="M6987 12553 c-12 -11 -8 -23 8 -23 8 0 15 7 15 15 0 16 -12 20 -23 8z"/>
<path d="M6910 12539 c0 -5 5 -7 10 -4 6 3 10 8 10 11 0 2 -4 4 -10 4 -5 0
-10 -5 -10 -11z"/>
<path d="M7266 12485 c25 -19 40 -19 24 0 -7 8 -20 15 -28 15 -13 0 -12 -3 4
-15z"/>
<path d="M6890 12410 c-12 -8 -10 -10 8 -10 13 0 20 4 17 10 -7 12 -6 12 -25
0z"/>
<path d="M7360 12410 c0 -5 5 -10 10 -10 6 0 10 5 10 10 0 6 -4 10 -10 10 -5
0 -10 -4 -10 -10z"/>
<path d="M7400 12345 c-7 -9 -10 -18 -7 -21 3 -3 10 4 17 15 13 25 8 27 -10 6z"/>
<path d="M6805 12290 c-3 -5 -13 -6 -23 -3 -13 4 -14 3 -6 -6 11 -12 44 -5 44
10 0 12 -7 11 -15 -1z"/>
<path d="M6656 2316 c3 -8 9 -45 12 -82 10 -98 27 -91 27 11 0 81 -1 85 -22
85 -15 0 -21 -5 -17 -14z"/>
<path d="M6611 2174 c0 -11 3 -14 6 -6 3 7 2 16 -1 19 -3 4 -6 -2 -5 -13z"/>
<path d="M5955 11450 c-11 -17 5 -51 23 -48 23 4 23 52 0 56 -9 2 -19 -2 -23
-8z"/>
<path d="M5906 11384 c-13 -12 -16 -40 -16 -137 0 -67 5 -138 11 -157 5 -19
23 -84 39 -143 18 -67 39 -122 55 -143 27 -35 50 -44 58 -21 5 14 -13 57 -23
57 -19 0 -39 76 -50 190 -7 69 -19 137 -27 152 -14 30 -16 128 -2 165 17 45
-13 69 -45 37z"/>
<path d="M6675 11260 c-3 -6 1 -7 9 -4 18 7 21 14 7 14 -6 0 -13 -4 -16 -10z"/>
<path d="M6505 11090 c4 -6 11 -8 16 -5 14 9 11 15 -7 15 -8 0 -12 -5 -9 -10z"/>
<path d="M6035 10940 c-4 -6 -4 -22 -1 -36 8 -31 36 -32 36 0 0 28 -24 53 -35
36z"/>
<path d="M6545 10480 c3 -5 10 -10 16 -10 5 0 9 5 9 10 0 6 -7 10 -16 10 -8 0
-12 -4 -9 -10z"/>
<path d="M6772 10048 c5 -15 28 -23 28 -10 0 5 -7 13 -16 16 -10 4 -14 1 -12
-6z"/>
<path d="M7134 9642 c-6 -4 -13 -15 -17 -24 -5 -15 -1 -18 23 -18 28 0 42 12
46 38 2 13 -34 16 -52 4z"/>
<path d="M6970 7334 c-16 -19 -2 -67 20 -72 11 -2 15 9 17 43 2 48 -13 59 -37
29z"/>
<path d="M7111 7337 c-6 -8 -8 -17 -4 -20 7 -8 33 11 33 24 0 13 -16 11 -29
-4z"/>
<path d="M6902 5708 c-13 -13 -16 -47 -6 -72 10 -26 21 -18 26 17 3 17 8 40
13 50 8 20 -14 24 -33 5z"/>
<path d="M7015 5639 c-4 -6 -4 -13 -1 -16 8 -8 36 5 36 17 0 13 -27 13 -35 -1z"/>
<path d="M6866 4389 c-30 -36 -34 -79 -8 -102 25 -23 46 -22 37 1 -18 41 -17
70 4 91 12 12 21 26 21 31 0 20 -29 9 -54 -21z"/>
</g>
</svg>
